# xmcd CD database file
#
# Track frame offsets:
#	150
#	13465
#	24837
#	37240
#	47185
#	59275
#	72822
#	84647
#	95405
#	106405
#	119492
#	130892
#
# Disc length: 1910 seconds
#
# Revision: 0
# Processed by: cddbd v1.5.2PL0 Copyright (c) Steve Scherf et al.
# Submitted via: CDex 1.70beta2
#
DISCID=a707740c
DTITLE=John Lee Hooker - John Lee Hooker For Sale
DYEAR=1994
DGENRE=Blues
TTITLE0=I'm Goin' pstairs
TTITLE1=Boom Boom
TTITLE2=I'm In The Mood
TTITLE3=Dimples
TTITLE4=I'm Mad Again
TTITLE5=Baby Lee
TTITLE6=Boogie Chillun
TTITLE7=Let's Make It
TTITLE8=Bottle Up And Go
TTITLE9=Unfriendly Woman
TTITLE10=Hard Headed Woman
TTITLE11=Crawlin' Kingsnake
EXTD=YEAR: 1994
EXTT0=
EXTT1=
EXTT2=
EXTT3=
EXTT4=
EXTT5=
EXTT6=
EXTT7=
EXTT8=
EXTT9=
EXTT10=
EXTT11=
PLAYORDER=
